<?xml version="1.0" encoding="UTF-8" standalone="no"?>
<svg
   xmlns:dc="http://purl.org/dc/elements/1.1/"
   xmlns:cc="http://creativecommons.org/ns#"
   xmlns:rdf="http://www.w3.org/1999/02/22-rdf-syntax-ns#"
   xmlns:svg="http://www.w3.org/2000/svg"
   xmlns="http://www.w3.org/2000/svg"
   xmlns:sodipodi="http://sodipodi.sourceforge.net/DTD/sodipodi-0.dtd"
   xmlns:inkscape="http://www.inkscape.org/namespaces/inkscape"
   width="200.00002"
   height="174.24088"
   id="svg3303"
   version="1.1"
   inkscape:version="1.0.1 (3bc2e813f5, 2020-09-07)"
   sodipodi:docname="Rás 2 logo old (Print).svg">
  <defs
     id="defs3305" />
  <sodipodi:namedview
     id="base"
     pagecolor="#ffffff"
     bordercolor="#666666"
     borderopacity="1.0"
     inkscape:pageopacity="0.0"
     inkscape:pageshadow="2"
     inkscape:zoom="1.979899"
     inkscape:cx="147.07204"
     inkscape:cy="57.926174"
     inkscape:document-units="px"
     inkscape:current-layer="layer1"
     showgrid="false"
     fit-margin-left="0.2"
     fit-margin-bottom="0.2"
     fit-margin-top="0.2"
     fit-margin-right="0.2"
     inkscape:window-width="1600"
     inkscape:window-height="837"
     inkscape:window-x="-8"
     inkscape:window-y="-8"
     inkscape:window-maximized="1"
     inkscape:document-rotation="0" />
  <metadata
     id="metadata3308">
    <rdf:RDF>
      <cc:Work
         rdf:about="">
        <dc:format>image/svg+xml</dc:format>
        <dc:type
           rdf:resource="http://purl.org/dc/dcmitype/StillImage" />
        <dc:title></dc:title>
      </cc:Work>
    </rdf:RDF>
  </metadata>
  <g
     inkscape:label="Layer 1"
     inkscape:groupmode="layer"
     id="layer1"
     transform="translate(-206.81956,-572.68826)">
    <path
       id="path3103"
       style="fill:#000000;fill-opacity:1;fill-rule:evenodd;stroke:none"
       d="m 342.88361,664.99464 c 0.12716,4.16 1.26253,10.59527 -0.88105,14.75981 -1.51231,10.34095 3.15179,22.83002 11.22654,29.2653 l -12.73885,12.11212 -26.36787,-56.13723 28.76123,0 z m -4.16,-72.53652 c 5.29537,9.45991 6.0538,20.56382 1.00821,30.52783 -5.54969,8.82864 -14.88697,13.49728 -23.33866,18.03876 -9.33278,6.18095 -21.82185,11.10392 -25.35512,23.08434 l 0.12716,0.88559 10.44994,0.12716 -28.61586,63.07207 -9.5689,-20.68644 c 9.46445,-4.92296 15.99964,-15.39107 14.86427,-26.61761 -3.27895,-9.08296 -0.50411,-18.92435 4.92296,-26.36783 9.96401,-13.24296 24.34687,-19.17413 37.46724,-28.25709 6.43074,-4.79126 11.47632,-11.98497 9.96401,-20.18234 -0.5041,-6.18095 -4.41432,-12.74339 -10.46811,-14.63265 -7.19374,-2.3979 -16.7808,-2.52506 -22.96176,2.39336 -6.18095,5.04559 -6.30811,12.99318 -6.93938,20.3095 -3.65589,0 -8.30182,0.12716 -11.96226,0 -0.20891,-2.32978 0.48594,-5.54969 0.60856,-8.57431 1.63948,-8.83318 6.18096,-18.16592 15.26391,-22.2033 10.09571,-5.04558 25.48228,-5.67685 35.19651,0.63127 4.16454,2.27074 6.68506,4.91842 9.33728,8.45169 z m 6.93484,0 c 1.8938,4.16 3.02917,9.21012 3.15633,13.7516 l 0.50411,57.27261 c 7.6978,-8.45624 20.8136,-12.99772 32.92572,-9.46445 9.33275,2.02096 16.27213,9.21012 20.56383,17.03055 l 0,0.63127 -12.87056,11.8578 c 0.50411,1.3897 1.8938,2.14358 2.90201,2.90201 9.71422,7.57065 15.6454,20.68644 13.24749,33.93394 -2.14357,11.09937 -11.48086,20.05971 -21.57203,24.21971 -12.74339,4.66864 -28.74302,1.51685 -36.81777,-7.82043 l 4.20995,8.48348 -41.59999,0 -0.0327,-25.7956 -4.31895,0 c 0,0 0.15441,16.96697 -0.0956,25.7956 l -65.91504,0 0.0727,-25.7956 -4.11004,0 0,25.7956 -28.88835,0 0,-60.07923 30.71857,0.0636 0.0727,-3.94201 -30.79123,-0.0327 0,-24.59665 47.43122,0 c 6.6896,1.63947 13.50182,4.53694 17.66181,9.70968 l 0,-20.26862 -19.42409,-0.0411 22.45308,-49.95628 c 5.93117,-12.10758 18.29308,-21.82181 31.79036,-23.08434 16.90342,-1.26253 32.2945,6.05834 38.72523,19.42845"
       inkscape:connector-curvature="0" />
  </g>
</svg>
